<svg xmlns="http://www.w3.org/2000/svg" viewBox="0 0 800 600">
  <defs>
    <linearGradient id="bg" x1="0" y1="0" x2="1" y2="1">
      <stop offset="0%" stop-color="#10233a"/>
      <stop offset="100%" stop-color="#0a0f1a"/>
    </linearGradient>
  </defs>
  <rect width="100%" height="100%" fill="url(#bg)"/>
  <g transform="translate(400,260)">
    <rect x="-160" y="-40" width="320" height="220" rx="20" fill="#111827" stroke="#334155" stroke-width="6"/>
    <!-- keypad dots -->
    <g fill="#94a3b8">
      <circle cx="-90" cy="10" r="12"/>
      <circle cx="0" cy="10" r="12"/>
      <circle cx="90" cy="10" r="12"/>
      <circle cx="-90" cy="70" r="12"/>
      <circle cx="0" cy="70" r="12"/>
      <circle cx="90" cy="70" r="12"/>
      <circle cx="-45" cy="130" r="12"/>
      <circle cx="45" cy="130" r="12"/>
    </g>
  </g>
  <!-- lock shackle -->
  <g transform="translate(400,160)">
    <path d="M-90,40 a90,90 0 0 1 180,0 v40 h-36 v-40 a54,54 0 0 0 -108,0 v40 h-36z" fill="#1f2937" stroke="#475569" stroke-width="6"/>
  </g>
</svg>

